<?xml version="1.0" encoding="utf-8"?>
<!-- Generator: Adobe Illustrator 19.1.0, SVG Export Plug-In . SVG Version: 6.00 Build 0)  -->
<svg version="1.1" xmlns="http://www.w3.org/2000/svg" xmlns:xlink="http://www.w3.org/1999/xlink" x="0px" y="0px"
	 viewBox="0 0 1080 675" style="enable-background:new 0 0 1080 675;" xml:space="preserve">
<style type="text/css">
	.st0{fill:#006838;}
	.st1{fill:none;stroke:#6D6E71;stroke-width:5;stroke-miterlimit:10;}
	.st2{fill:none;stroke:#6D6E71;stroke-width:4;stroke-miterlimit:10;}
	.st3{fill:#6D6E71;stroke:#6D6E71;stroke-width:2;stroke-miterlimit:10;}
	.st4{stroke:#6D6E71;stroke-width:2;stroke-miterlimit:10;}
	.st5{fill:none;stroke:#939598;stroke-width:4;stroke-miterlimit:10;}
	.st6{fill:#BD4327;}
	.st7{fill:none;stroke:#CB5327;stroke-miterlimit:10;}
	.st8{fill:#A91E22;}
	.st9{fill:#27AAE1;}
	.st10{fill:none;stroke:#593512;stroke-width:3;stroke-miterlimit:10;}
	.st11{fill:none;stroke:#000000;stroke-width:3;stroke-miterlimit:10;}
	.st12{fill:none;stroke:#592C8A;stroke-width:3;stroke-miterlimit:10;}
	.st13{fill:none;stroke:#F9ED32;stroke-width:3;stroke-miterlimit:10;}
	.st14{fill:none;stroke:#939598;stroke-width:2;stroke-miterlimit:10;}
	.st15{fill:#383838;}
	.st16{fill:none;stroke:#ED1C24;stroke-width:3;stroke-miterlimit:10;}
	.st17{fill:none;stroke:#F26522;stroke-width:3;stroke-miterlimit:10;}
	.st18{fill:none;stroke:#A7A9AC;stroke-width:3;stroke-miterlimit:10;}
	.st19{fill:none;stroke:#2E3192;stroke-width:3;stroke-miterlimit:10;}
	.st20{fill:#314056;stroke:#939598;stroke-width:4;stroke-miterlimit:10;}
	.st21{fill:#F15A29;stroke:#E6E7E8;stroke-width:2;stroke-miterlimit:10;}
	.st22{fill:none;stroke:#000000;stroke-width:4;stroke-miterlimit:10;}
	.st23{fill:#939598;stroke:#000000;stroke-width:11;stroke-miterlimit:10;}
	.st24{fill:none;stroke:#939598;stroke-width:3;stroke-miterlimit:10;}
</style>
<g id="board">
	<path class="st0" d="M362.4,459h355.2c1.3,0,2.4-1.1,2.4-2.4V218.4c0-1.3-1.1-2.4-2.4-2.4H362.4c-1.3,0-2.4,1.1-2.4,2.4v238.2
		C360,457.9,361.1,459,362.4,459z"/>
</g>
<g id="circuit">
	<line class="st1" x1="711" y1="405" x2="711" y2="432"/>
	<line class="st2" x1="397.8" y1="258.9" x2="421" y2="236"/>
	<line class="st2" x1="522" y1="249.3" x2="522" y2="236.8"/>
	<line class="st2" x1="459" y1="236.8" x2="459" y2="249.3"/>
	<line class="st2" x1="459.2" y1="273.2" x2="459.2" y2="285.2"/>
	<line class="st2" x1="405" y1="398.7" x2="405.2" y2="420.1"/>
	<polyline class="st2" points="440.9,236.8 440.9,252.1 433.9,258.9 	"/>
	<polyline class="st2" points="460.8,254.2 467.8,261 467.8,296.7 461.2,304 	"/>
	<polyline class="st2" points="511.3,322.2 495,306 495,278.9 520.2,254.2 	"/>
	<polyline class="st2" points="522,273.2 522,278.9 515.2,286 	"/>
	<polyline class="st2" points="429.3,342 423,342 406.8,326.1 	"/>
	<polyline class="st2" points="457.4,326.1 441,342 434.8,342 	"/>
	<polyline class="st2" points="457.4,344 450.4,351.2 450.4,386.8 434.1,403.5 	"/>
	<polyline class="st2" points="430,403.5 387.3,359.7 371.8,359.7 369,356.9 369,234 378,225 702,225 711,234 711,405 	"/>
	<line class="st2" x1="443.7" y1="234" x2="456.2" y2="234"/>
	<line class="st2" x1="452.7" y1="449.9" x2="465.1" y2="449.9"/>
	<line class="st2" x1="470.7" y1="449.9" x2="483.1" y2="449.9"/>
	<line class="st2" x1="488.7" y1="449.9" x2="501" y2="449.9"/>
	<polyline class="st2" points="519.3,440.9 468.2,440.9 434.1,407.2 	"/>
	<line class="st2" x1="506.5" y1="377.9" x2="519.3" y2="377.9"/>
	<polyline class="st2" points="555.3,449.9 530.9,449.9 523.9,442.9 	"/>
	<polyline class="st2" points="547.1,393.3 531,377.9 524.8,377.9 	"/>
	<polyline class="st2" points="479.2,421 486.1,413.9 611.8,413.9 627.7,396.9 	"/>
	<line class="st2" x1="549" y1="434.3" x2="549" y2="449.6"/>
	<line class="st2" x1="560.8" y1="449.9" x2="573.2" y2="449.9"/>
	<line class="st2" x1="578.7" y1="449.9" x2="618.3" y2="449.9"/>
	<line class="st2" x1="623.8" y1="449.9" x2="645.3" y2="449.9"/>
	<line class="st2" x1="629.9" y1="434.6" x2="629.9" y2="449.9"/>
	<line class="st2" x1="650.7" y1="450" x2="663.2" y2="450"/>
	<line class="st2" x1="668.8" y1="449.9" x2="690.1" y2="449.9"/>
	<polyline class="st1" points="695.6,449.9 702,449.9 711,441 711,432 	"/>
	<polyline class="st2" points="574.2,388.7 566.8,395.3 551.8,395.3 	"/>
	<line class="st2" x1="578.2" y1="384.8" x2="592.3" y2="370.9"/>
	<polyline class="st2" points="596.8,368.8 602.8,368.8 619.2,353 	"/>
	<line class="st2" x1="594.1" y1="438" x2="594.1" y2="413.9"/>
	<polyline class="st2" points="632.7,396 647.9,396 664,379.5 	"/>
	<line class="st2" x1="691.2" y1="375.8" x2="658.9" y2="343.9"/>
	<line class="st2" x1="677.9" y1="341.9" x2="693" y2="341.9"/>
	<polyline class="st2" points="654.3,341.9 629.9,341.9 623.4,334.2 	"/>
	<polyline class="st2" points="693,339.9 692.7,243.1 683.9,233.9 668.8,233.9 	"/>
	<polyline class="st2" points="531,357.2 531,342 515.5,325.8 	"/>
	<polyline class="st2" points="558,395.3 558,351 515.5,307.8 	"/>
	<polyline class="st2" points="533.8,288 540,288 556.1,304.1 	"/>
	<polyline class="st2" points="540,236.8 540,243 533.3,250.1 	"/>
	<line class="st2" x1="556.1" y1="252.1" x2="568.7" y2="252.1"/>
	<line class="st2" x1="574.2" y1="252.1" x2="591.1" y2="252.1"/>
	<line class="st2" x1="534.2" y1="270" x2="550.6" y2="270"/>
	<line class="st2" x1="556.1" y1="270" x2="568.7" y2="270"/>
	<polyline class="st2" points="574.2,303.8 571.5,301 571.5,272.8 	"/>
	<line class="st2" x1="594.4" y1="267.6" x2="594.4" y2="254.8"/>
	<line class="st2" x1="578.7" y1="233.9" x2="609.2" y2="233.9"/>
	<line class="st2" x1="638.9" y1="231.1" x2="638.9" y2="224.8"/>
	<polyline class="st2" points="596.7,252.1 647.9,252.2 655.2,245.2 	"/>
	<polyline class="st2" points="657,288 629.7,288 613.8,303.8 	"/>
	<line class="st2" x1="657" y1="303.3" x2="657" y2="288"/>
	<polyline class="st2" points="636.2,306.1 629.9,305.9 623,313 	"/>
	<polyline class="st2" points="673.3,308.2 666,315 623.8,315 	"/>
	<polyline class="st2" points="657,288 666,279.1 666,252.1 673,244.7 	"/>
	<polyline class="st2" points="398.7,306 405,306 430.2,331.1 	"/>
	<line class="st2" x1="638.9" y1="236.7" x2="638.9" y2="252.1"/>
	<ellipse class="st3" cx="396" cy="261" rx="2.8" ry="2.8"/>
	<ellipse class="st3" cx="369" cy="261" rx="2.8" ry="2.8"/>
	<ellipse class="st3" cx="396" cy="306" rx="2.8" ry="2.8"/>
	<ellipse class="st3" cx="369" cy="306" rx="2.8" ry="2.8"/>
	<ellipse class="st3" cx="459" cy="234" rx="2.8" ry="2.8"/>
	<ellipse class="st3" cx="440.9" cy="234" rx="2.8" ry="2.8"/>
	<ellipse class="st3" cx="423" cy="234" rx="2.8" ry="2.8"/>
	<ellipse class="st3" cx="540" cy="234" rx="2.8" ry="2.8"/>
	<ellipse class="st3" cx="575.9" cy="233.9" rx="2.8" ry="2.8"/>
	<ellipse class="st3" cx="522" cy="234" rx="2.8" ry="2.8"/>
	<ellipse class="st3" cx="638.9" cy="233.9" rx="2.8" ry="2.8"/>
	<ellipse class="st3" cx="666" cy="233.9" rx="2.8" ry="2.8"/>
	<ellipse class="st3" cx="611.9" cy="233.9" rx="2.8" ry="2.8"/>
	<ellipse class="st3" cx="432.1" cy="261" rx="2.8" ry="2.8"/>
	<ellipse class="st3" cx="459" cy="252.1" rx="2.8" ry="2.8"/>
	<ellipse class="st3" cx="522" cy="252.1" rx="2.8" ry="2.8"/>
	<ellipse class="st3" cx="432.1" cy="333.2" rx="2.8" ry="2.8"/>
	<ellipse class="st3" cx="459.2" cy="270.4" rx="2.8" ry="2.8"/>
	<ellipse class="st3" cx="522" cy="270.4" rx="2.8" ry="2.8"/>
	<ellipse class="st3" cx="459.2" cy="288" rx="2.8" ry="2.8"/>
	<ellipse class="st3" cx="459.3" cy="306" rx="2.8" ry="2.8"/>
	<ellipse class="st3" cx="459.2" cy="324" rx="2.8" ry="2.8"/>
	<ellipse class="st3" cx="459.3" cy="342" rx="2.8" ry="2.8"/>
	<ellipse class="st3" cx="513.4" cy="288" rx="2.8" ry="2.8"/>
	<ellipse class="st3" cx="513.4" cy="306" rx="2.8" ry="2.8"/>
	<ellipse class="st3" cx="513.4" cy="324" rx="2.8" ry="2.8"/>
	<ellipse class="st3" cx="513.4" cy="342" rx="2.8" ry="2.8"/>
	<ellipse class="st3" cx="432.1" cy="342" rx="2.8" ry="2.8"/>
	<ellipse class="st3" cx="432.1" cy="405.4" rx="2.8" ry="2.8"/>
	<ellipse class="st3" cx="405" cy="324" rx="2.8" ry="2.8"/>
	<ellipse class="st3" cx="405" cy="395.9" rx="2.8" ry="2.8"/>
	<ellipse class="st3" cx="370.7" cy="359.7" rx="2.8" ry="2.8"/>
	<ellipse class="st3" cx="370.7" cy="431.9" rx="2.8" ry="2.8"/>
	<ellipse class="st3" cx="377.5" cy="441" rx="2.8" ry="2.8"/>
	<ellipse class="st3" cx="405.2" cy="422.9" rx="2.8" ry="2.8"/>
	<ellipse class="st3" cx="441" cy="441" rx="2.8" ry="2.8"/>
	<ellipse class="st3" cx="477.2" cy="422.9" rx="2.8" ry="2.8"/>
	<ellipse class="st3" cx="369" cy="449.9" rx="2.8" ry="2.8"/>
	<ellipse class="st3" cx="531.4" cy="252.1" rx="2.8" ry="2.8"/>
	<ellipse class="st3" cx="531.4" cy="270" rx="2.8" ry="2.8"/>
	<ellipse class="st3" cx="593.9" cy="252.1" rx="2.8" ry="2.8"/>
	<ellipse class="st3" cx="594.4" cy="270" rx="2.8" ry="2.8"/>
	<ellipse class="st3" cx="531" cy="288" rx="2.8" ry="2.8"/>
	<ellipse class="st3" cx="531" cy="360" rx="2.8" ry="2.8"/>
	<ellipse class="st3" cx="611.9" cy="305.9" rx="2.8" ry="2.8"/>
	<ellipse class="st3" cx="638.9" cy="306.1" rx="2.8" ry="2.8"/>
	<ellipse class="st3" cx="675.1" cy="306.1" rx="2.8" ry="2.8"/>
	<ellipse class="st3" cx="657" cy="306.1" rx="2.8" ry="2.8"/>
	<ellipse class="st3" cx="657" cy="243.1" rx="2.8" ry="2.8"/>
	<ellipse class="st3" cx="675.1" cy="242.9" rx="2.8" ry="2.8"/>
	<ellipse class="st3" cx="621.1" cy="315" rx="2.8" ry="2.8"/>
	<ellipse class="st3" cx="621.1" cy="351" rx="2.8" ry="2.8"/>
	<ellipse class="st3" cx="621.1" cy="332.7" rx="2.8" ry="2.8"/>
	<ellipse class="st3" cx="693" cy="377.9" rx="2.8" ry="2.8"/>
	<ellipse class="st3" cx="666" cy="377.6" rx="2.8" ry="2.8"/>
	<ellipse class="st3" cx="692.9" cy="449.9" rx="2.8" ry="2.8"/>
	<ellipse class="st3" cx="666" cy="450" rx="2.8" ry="2.8"/>
	<ellipse class="st3" cx="594.1" cy="440.8" rx="2.8" ry="2.8"/>
	<ellipse class="st3" cx="594.1" cy="368.8" rx="2.8" ry="2.8"/>
	<ellipse class="st3" cx="576" cy="386.6" rx="2.8" ry="2.8"/>
	<ellipse class="st3" cx="575.9" cy="449.9" rx="2.8" ry="2.8"/>
	<ellipse class="st3" cx="549" cy="431.5" rx="2.8" ry="2.8"/>
	<ellipse class="st3" cx="549" cy="395.3" rx="2.8" ry="2.8"/>
	<ellipse class="st3" cx="522" cy="440.9" rx="2.8" ry="2.8"/>
	<ellipse class="st3" cx="522" cy="377.9" rx="2.8" ry="2.8"/>
	<ellipse class="st3" cx="503.7" cy="449.9" rx="2.8" ry="2.8"/>
	<ellipse class="st3" cx="504" cy="377.9" rx="2.8" ry="2.8"/>
	<ellipse class="st3" cx="558" cy="306.1" rx="2.8" ry="2.8"/>
	<ellipse class="st3" cx="576" cy="305.9" rx="2.8" ry="2.8"/>
	<ellipse class="st3" cx="657" cy="341.9" rx="2.8" ry="2.8"/>
	<ellipse class="st3" cx="675.1" cy="341.9" rx="2.8" ry="2.8"/>
	<ellipse class="st3" cx="629.9" cy="431.8" rx="2.8" ry="2.8"/>
	<ellipse class="st3" cx="629.9" cy="396" rx="2.8" ry="2.8"/>
	<ellipse class="st3" cx="708.2" cy="234.1" rx="2.8" ry="2.8"/>
	<ellipse class="st3" cx="708.9" cy="270.1" rx="2.8" ry="2.8"/>
	<ellipse class="st3" cx="708.2" cy="252.1" rx="2.8" ry="2.8"/>
	<ellipse class="st3" cx="708.9" cy="287.9" rx="2.8" ry="2.8"/>
	<ellipse class="st3" cx="695.8" cy="341.9" rx="2.8" ry="2.8"/>
	<ellipse class="st3" cx="648" cy="449.9" rx="2.8" ry="2.8"/>
	<ellipse class="st3" cx="621.1" cy="449.9" rx="2.8" ry="2.8"/>
	<ellipse class="st3" cx="558.1" cy="449.9" rx="2.8" ry="2.8"/>
	<ellipse class="st3" cx="485.9" cy="449.9" rx="2.8" ry="2.8"/>
	<ellipse class="st3" cx="467.9" cy="449.9" rx="2.8" ry="2.8"/>
	<ellipse class="st3" cx="449.9" cy="449.9" rx="2.8" ry="2.8"/>
	<ellipse class="st3" cx="553.3" cy="252.1" rx="2.8" ry="2.8"/>
	<ellipse class="st3" cx="571.5" cy="252.1" rx="2.8" ry="2.8"/>
	<ellipse class="st3" cx="553.3" cy="270" rx="2.8" ry="2.8"/>
	<ellipse class="st3" cx="571.5" cy="270" rx="2.8" ry="2.8"/>
	<ellipse class="st3" cx="378" cy="228.4" rx="2.8" ry="2.8"/>
	<polyline class="st2" points="407.9,422.9 422.9,422.9 439.3,438.9 	"/>
	<line class="st2" x1="371.1" y1="433.7" x2="375.8" y2="438.9"/>
	<line class="st2" x1="375.8" y1="443.2" x2="371.1" y2="448"/>
</g>
<g id="holes">
	<ellipse class="st4" cx="396" cy="261" rx="2.8" ry="2.8"/>
	<ellipse class="st4" cx="369" cy="261" rx="2.8" ry="2.8"/>
	<ellipse class="st4" cx="396" cy="306" rx="2.8" ry="2.8"/>
	<ellipse class="st4" cx="369" cy="306" rx="2.8" ry="2.8"/>
	<ellipse class="st4" cx="459" cy="234" rx="2.8" ry="2.8"/>
	<ellipse class="st4" cx="440.9" cy="234" rx="2.8" ry="2.8"/>
	<ellipse class="st4" cx="423" cy="234" rx="2.8" ry="2.8"/>
	<ellipse class="st4" cx="540" cy="234" rx="2.8" ry="2.8"/>
	<ellipse class="st4" cx="575.9" cy="233.9" rx="2.8" ry="2.8"/>
	<ellipse class="st4" cx="522" cy="234" rx="2.8" ry="2.8"/>
	<ellipse class="st4" cx="638.9" cy="233.9" rx="2.8" ry="2.8"/>
	<ellipse class="st4" cx="666" cy="233.9" rx="2.8" ry="2.8"/>
	<ellipse class="st4" cx="611.9" cy="233.9" rx="2.8" ry="2.8"/>
	<ellipse class="st4" cx="432.1" cy="261" rx="2.8" ry="2.8"/>
	<ellipse class="st4" cx="459" cy="252.1" rx="2.8" ry="2.8"/>
	<ellipse class="st4" cx="522" cy="252.1" rx="2.8" ry="2.8"/>
	<ellipse class="st4" cx="432.1" cy="333.2" rx="2.8" ry="2.8"/>
	<ellipse class="st4" cx="459.2" cy="270.4" rx="2.8" ry="2.8"/>
	<ellipse class="st4" cx="522" cy="270.4" rx="2.8" ry="2.8"/>
	<ellipse class="st4" cx="459.2" cy="288" rx="2.8" ry="2.8"/>
	<ellipse class="st4" cx="459.3" cy="306" rx="2.8" ry="2.8"/>
	<ellipse class="st4" cx="459.2" cy="324" rx="2.8" ry="2.8"/>
	<ellipse class="st4" cx="459.3" cy="342" rx="2.8" ry="2.8"/>
	<ellipse class="st4" cx="513.4" cy="288" rx="2.8" ry="2.8"/>
	<ellipse class="st4" cx="513.4" cy="306" rx="2.8" ry="2.8"/>
	<ellipse class="st4" cx="513.4" cy="324" rx="2.8" ry="2.8"/>
	<ellipse class="st4" cx="513.4" cy="342" rx="2.8" ry="2.8"/>
	<ellipse class="st4" cx="432.1" cy="342" rx="2.8" ry="2.8"/>
	<ellipse class="st4" cx="432.1" cy="405.4" rx="2.8" ry="2.8"/>
	<ellipse class="st4" cx="405" cy="324" rx="2.8" ry="2.8"/>
	<ellipse class="st4" cx="405" cy="395.9" rx="2.8" ry="2.8"/>
	<ellipse class="st4" cx="370.7" cy="359.7" rx="2.8" ry="2.8"/>
	<ellipse class="st4" cx="370.7" cy="431.9" rx="2.8" ry="2.8"/>
	<ellipse class="st4" cx="377.5" cy="441" rx="2.8" ry="2.8"/>
	<ellipse class="st4" cx="405.2" cy="422.9" rx="2.8" ry="2.8"/>
	<ellipse class="st4" cx="441" cy="441" rx="2.8" ry="2.8"/>
	<ellipse class="st4" cx="477.2" cy="422.9" rx="2.8" ry="2.8"/>
	<ellipse class="st4" cx="369" cy="449.9" rx="2.8" ry="2.8"/>
	<ellipse class="st4" cx="531.4" cy="252.1" rx="2.8" ry="2.8"/>
	<ellipse class="st4" cx="531.4" cy="270" rx="2.8" ry="2.8"/>
	<ellipse class="st4" cx="593.9" cy="252.1" rx="2.8" ry="2.8"/>
	<ellipse class="st4" cx="594.4" cy="270" rx="2.8" ry="2.8"/>
	<ellipse class="st4" cx="531" cy="288" rx="2.8" ry="2.8"/>
	<ellipse class="st4" cx="531" cy="360" rx="2.8" ry="2.8"/>
	<ellipse class="st4" cx="611.9" cy="305.9" rx="2.8" ry="2.8"/>
	<ellipse class="st4" cx="638.9" cy="306.1" rx="2.8" ry="2.8"/>
	<ellipse class="st4" cx="675.1" cy="306.1" rx="2.8" ry="2.8"/>
	<ellipse class="st4" cx="657" cy="306.1" rx="2.8" ry="2.8"/>
	<ellipse class="st4" cx="657" cy="243.1" rx="2.8" ry="2.8"/>
	<ellipse class="st4" cx="675.1" cy="242.9" rx="2.8" ry="2.8"/>
	<ellipse class="st4" cx="621.1" cy="315" rx="2.8" ry="2.8"/>
	<ellipse class="st4" cx="621.1" cy="351" rx="2.8" ry="2.8"/>
	<ellipse class="st4" cx="621.1" cy="332.7" rx="2.8" ry="2.8"/>
	<ellipse class="st4" cx="693" cy="377.9" rx="2.8" ry="2.8"/>
	<ellipse class="st4" cx="666" cy="377.6" rx="2.8" ry="2.8"/>
	<ellipse class="st4" cx="692.9" cy="449.9" rx="2.8" ry="2.8"/>
	<ellipse class="st4" cx="666" cy="450" rx="2.8" ry="2.8"/>
	<ellipse class="st4" cx="594.1" cy="440.8" rx="2.8" ry="2.8"/>
	<ellipse class="st4" cx="594.1" cy="368.8" rx="2.8" ry="2.8"/>
	<ellipse class="st4" cx="576" cy="386.6" rx="2.8" ry="2.8"/>
	<ellipse class="st4" cx="575.9" cy="449.9" rx="2.8" ry="2.8"/>
	<ellipse class="st4" cx="549" cy="431.5" rx="2.8" ry="2.8"/>
	<ellipse class="st4" cx="549" cy="395.3" rx="2.8" ry="2.8"/>
	<ellipse class="st4" cx="522" cy="440.9" rx="2.8" ry="2.8"/>
	<ellipse class="st4" cx="522" cy="377.9" rx="2.8" ry="2.8"/>
	<ellipse class="st4" cx="503.7" cy="449.9" rx="2.8" ry="2.8"/>
	<ellipse class="st4" cx="504" cy="377.9" rx="2.8" ry="2.8"/>
	<ellipse class="st4" cx="558" cy="306.1" rx="2.8" ry="2.8"/>
	<ellipse class="st4" cx="576" cy="305.9" rx="2.8" ry="2.8"/>
	<ellipse class="st4" cx="657" cy="341.9" rx="2.8" ry="2.8"/>
	<ellipse class="st4" cx="675.1" cy="341.9" rx="2.8" ry="2.8"/>
	<ellipse class="st4" cx="629.9" cy="431.8" rx="2.8" ry="2.8"/>
	<ellipse class="st4" cx="629.9" cy="396" rx="2.8" ry="2.8"/>
	<ellipse class="st4" cx="708.2" cy="234.1" rx="2.8" ry="2.8"/>
	<ellipse class="st4" cx="708.9" cy="270.1" rx="2.8" ry="2.8"/>
	<ellipse class="st4" cx="708.2" cy="252.1" rx="2.8" ry="2.8"/>
	<ellipse class="st4" cx="708.9" cy="287.9" rx="2.8" ry="2.8"/>
	<ellipse class="st4" cx="695.8" cy="341.9" rx="2.8" ry="2.8"/>
	<ellipse class="st4" cx="648" cy="449.9" rx="2.8" ry="2.8"/>
	<ellipse class="st4" cx="621.1" cy="449.9" rx="2.8" ry="2.8"/>
	<ellipse class="st4" cx="558.1" cy="449.9" rx="2.8" ry="2.8"/>
	<ellipse class="st4" cx="485.9" cy="449.9" rx="2.8" ry="2.8"/>
	<ellipse class="st4" cx="467.9" cy="449.9" rx="2.8" ry="2.8"/>
	<ellipse class="st4" cx="449.9" cy="449.9" rx="2.8" ry="2.8"/>
	<ellipse class="st4" cx="553.3" cy="252.1" rx="2.8" ry="2.8"/>
	<ellipse class="st4" cx="571.5" cy="252.1" rx="2.8" ry="2.8"/>
	<ellipse class="st4" cx="553.3" cy="270" rx="2.8" ry="2.8"/>
	<ellipse class="st4" cx="571.5" cy="270" rx="2.8" ry="2.8"/>
	<ellipse class="st4" cx="378" cy="228.4" rx="2.8" ry="2.8"/>
</g>
<g id="parts">
	<g>
		<line class="st5" x1="459" y1="252.5" x2="522.1" y2="252.5"/>
		<ellipse class="st6" cx="490.3" cy="252.5" rx="29.5" ry="5.3"/>
		<line class="st7" x1="461" y1="252.5" x2="519.7" y2="252.5"/>
	</g>
	<g>
		<line class="st5" x1="458.1" y1="270.8" x2="522.1" y2="270.8"/>
		<ellipse class="st6" cx="489.9" cy="270.8" rx="29.9" ry="5.3"/>
		<line class="st7" x1="460.1" y1="270.8" x2="519.6" y2="270.8"/>
	</g>
	<g>
		<path class="st8" d="M409.4,256.5v9c0,5-4,9-9,9h-28c-5,0-9-4-9-9v-9c0-5,4-9,9-9h28C405.3,247.5,409.4,251.5,409.4,256.5z"/>
	</g>
	<g>
		<path class="st8" d="M409.4,301.5v9c0,4.9-4,9-9,9h-28c-5,0-9-4.1-9-9v-9c0-4.9,4-9,9-9h28C405.3,292.5,409.4,296.6,409.4,301.5z"
			/>
	</g>
	<g>
		<path class="st9" d="M434.9,324h-5.7c-3.4,0-6.1-2.8-6.1-6.1v-41.7c0-3.4,2.8-6.1,6.1-6.1h5.7c3.4,0,6.1,2.8,6.1,6.1v41.7
			C441.1,321.2,438.3,324,434.9,324z"/>
		<line class="st5" x1="432.1" y1="270" x2="432.1" y2="261"/>
		<line class="st5" x1="432.1" y1="324" x2="432.1" y2="333"/>
		<line class="st10" x1="423.1" y1="315" x2="441.1" y2="315"/>
		<line class="st10" x1="423.1" y1="306" x2="441.1" y2="306"/>
		<line class="st11" x1="423.1" y1="297" x2="441.1" y2="297"/>
		<line class="st12" x1="423.1" y1="288" x2="441.1" y2="288"/>
		<line class="st13" x1="423.1" y1="279" x2="441.1" y2="279"/>
	</g>
	<g>
		<line class="st14" x1="459.3" y1="342" x2="470.2" y2="342"/>
		<line class="st14" x1="459.3" y1="324" x2="470.2" y2="324"/>
		<line class="st14" x1="459.3" y1="288" x2="470.2" y2="288"/>
		<line class="st14" x1="459.3" y1="306" x2="470.2" y2="306"/>
		<line class="st14" x1="502.8" y1="288" x2="513.7" y2="288"/>
		<line class="st14" x1="502.8" y1="306" x2="513.7" y2="306"/>
		<line class="st14" x1="502.8" y1="324" x2="513.7" y2="324"/>
		<line class="st14" x1="502.8" y1="342" x2="513.7" y2="342"/>
		<rect x="464.8" y="279" width="43.5" height="72"/>
		<rect x="481.1" y="279" class="st15" width="10.9" height="5.1"/>
	</g>
	<g>
		<line class="st5" x1="432.1" y1="342.2" x2="432.1" y2="405.5"/>
		<ellipse class="st6" cx="432.1" cy="373.6" rx="5.3" ry="29.5"/>
		<line class="st7" x1="432.1" y1="344.2" x2="432.1" y2="403"/>
	</g>
	<g>
		<path class="st9" d="M407.9,386.7h-5.7c-3.4,0-6.1-2.8-6.1-6.1v-41.7c0-3.4,2.8-6.1,6.1-6.1h5.7c3.4,0,6.1,2.8,6.1,6.1v41.7
			C414,384,411.2,386.7,407.9,386.7z"/>
		<line class="st5" x1="405" y1="332.7" x2="405" y2="323.7"/>
		<line class="st5" x1="405" y1="386.7" x2="405" y2="395.7"/>
		<line class="st10" x1="396" y1="377.7" x2="414" y2="377.7"/>
		<line class="st16" x1="396" y1="368.7" x2="414" y2="368.7"/>
		<line class="st11" x1="396" y1="359.7" x2="414" y2="359.7"/>
		<line class="st16" x1="396" y1="350.7" x2="414" y2="350.7"/>
		<line class="st16" x1="396" y1="341.7" x2="414" y2="341.7"/>
	</g>
	<g>
		<path class="st9" d="M373.6,422.7h-5.7c-3.4,0-6.1-2.8-6.1-6.1v-41.7c0-3.4,2.8-6.1,6.1-6.1h5.7c3.4,0,6.1,2.8,6.1,6.1v41.7
			C379.7,420,376.9,422.7,373.6,422.7z"/>
		<line class="st5" x1="370.7" y1="368.7" x2="370.7" y2="359.7"/>
		<line class="st5" x1="370.7" y1="422.7" x2="370.7" y2="431.7"/>
		<line class="st10" x1="361.7" y1="413.7" x2="379.7" y2="413.7"/>
		<line class="st17" x1="361.7" y1="404.7" x2="379.7" y2="404.7"/>
		<line class="st11" x1="361.7" y1="395.7" x2="379.7" y2="395.7"/>
		<line class="st18" x1="361.7" y1="386.7" x2="379.7" y2="386.7"/>
		<line class="st19" x1="361.7" y1="377.7" x2="379.7" y2="377.7"/>
	</g>
	<g>
		<path class="st9" d="M414.2,425.7V420c0-3.4,2.8-6.1,6.1-6.1H462c3.4,0,6.1,2.8,6.1,6.1v5.7c0,3.4-2.8,6.1-6.1,6.1h-41.7
			C416.9,431.9,414.2,429.1,414.2,425.7z"/>
		<line class="st5" x1="468.2" y1="422.9" x2="477.2" y2="422.9"/>
		<line class="st5" x1="414.2" y1="422.9" x2="405.2" y2="422.9"/>
		<line class="st10" x1="423.2" y1="413.9" x2="423.2" y2="431.9"/>
		<line class="st17" x1="432.2" y1="413.9" x2="432.2" y2="431.9"/>
		<line class="st11" x1="441.2" y1="413.9" x2="441.2" y2="431.9"/>
		<line class="st18" x1="450.2" y1="413.9" x2="450.2" y2="431.9"/>
		<line class="st19" x1="459.2" y1="413.9" x2="459.2" y2="431.9"/>
	</g>
	<g>
		<line class="st5" x1="377.5" y1="441.7" x2="440.7" y2="441.7"/>
		<ellipse class="st6" cx="408.9" cy="441.7" rx="29.5" ry="5.3"/>
		<line class="st7" x1="379.6" y1="441.7" x2="438.3" y2="441.7"/>
	</g>
	<g>
		<line class="st20" x1="531.4" y1="270" x2="594.4" y2="270"/>
		<path class="st21" d="M578.7,266.5v7c0,1.4-1.1,2.5-2.5,2.5h-26.4c-1.4,0-2.5-1.1-2.5-2.5v-7c0-1.4,1.1-2.5,2.5-2.5h26.4
			C577.5,264,578.7,265.1,578.7,266.5z"/>
		<line class="st22" x1="550.7" y1="276.9" x2="550.7" y2="263.1"/>
	</g>
	<g>
		<line class="st20" x1="594" y1="252.2" x2="531" y2="252"/>
		<path class="st21" d="M546.8,255.6l0-7c0-1.4,1.1-2.5,2.5-2.5l26.4,0.1c1.4,0,2.5,1.1,2.5,2.5l0,7c0,1.4-1.1,2.5-2.5,2.5
			l-26.4-0.1C547.9,258.1,546.8,257,546.8,255.6z"/>
		<line class="st22" x1="574.7" y1="245.3" x2="574.7" y2="259"/>
	</g>
	<g>
		<path class="st9" d="M614.8,296.9h-5.7c-3.4,0-6.1-2.8-6.1-6.1V249c0-3.4,2.8-6.1,6.1-6.1h5.7c3.4,0,6.1,2.8,6.1,6.1v41.7
			C620.9,294.1,618.2,296.9,614.8,296.9z"/>
		<line class="st5" x1="611.9" y1="242.9" x2="611.9" y2="233.9"/>
		<line class="st5" x1="611.9" y1="296.9" x2="611.9" y2="305.9"/>
		<line class="st10" x1="602.9" y1="287.9" x2="620.9" y2="287.9"/>
		<line class="st10" x1="602.9" y1="278.9" x2="620.9" y2="278.9"/>
		<line class="st11" x1="602.9" y1="269.9" x2="620.9" y2="269.9"/>
		<line class="st12" x1="602.9" y1="260.9" x2="620.9" y2="260.9"/>
		<line class="st13" x1="602.9" y1="251.9" x2="620.9" y2="251.9"/>
	</g>
	<g>
		<line class="st5" x1="675.1" y1="242.9" x2="675.1" y2="306.1"/>
		<ellipse class="st6" cx="675.1" cy="274.3" rx="5.3" ry="29.5"/>
		<line class="st7" x1="675.1" y1="244.9" x2="675.1" y2="303.7"/>
	</g>
	<g>
		<line class="st5" x1="657" y1="242.9" x2="657" y2="306.1"/>
		<ellipse class="st6" cx="657" cy="274.3" rx="5.3" ry="29.5"/>
		<line class="st7" x1="657" y1="244.9" x2="657" y2="303.7"/>
	</g>
	<g>
		<path class="st9" d="M641.8,297.1h-5.7c-3.4,0-6.1-2.8-6.1-6.1v-41.7c0-3.4,2.8-6.1,6.1-6.1h5.7c3.4,0,6.1,2.8,6.1,6.1v41.7
			C647.9,294.3,645.2,297.1,641.8,297.1z"/>
		<line class="st5" x1="638.9" y1="243.1" x2="638.9" y2="234.1"/>
		<line class="st5" x1="638.9" y1="297.1" x2="638.9" y2="306.1"/>
		<line class="st10" x1="629.9" y1="288.1" x2="647.9" y2="288.1"/>
		<line class="st17" x1="629.9" y1="279.1" x2="647.9" y2="279.1"/>
		<line class="st11" x1="629.9" y1="270.1" x2="647.9" y2="270.1"/>
		<line class="st18" x1="629.9" y1="261.1" x2="647.9" y2="261.1"/>
		<line class="st19" x1="629.9" y1="252.1" x2="647.9" y2="252.1"/>
	</g>
	<g>
		<ellipse class="st23" cx="666.1" cy="341.9" rx="20" ry="20.1"/>
	</g>
	<g>
		<path class="st8" d="M553.5,440.6h-9c-5,0-9-4-9-9v-36c0-5,4-9,9-9h9c5,0,9,4,9,9v36C562.5,436.5,558.4,440.6,553.5,440.6z"/>
	</g>
	<g>
		<path class="st9" d="M533.9,351h-5.7c-3.4,0-6.1-2.8-6.1-6.1v-41.7c0-3.4,2.8-6.1,6.1-6.1h5.7c3.4,0,6.1,2.8,6.1,6.1v41.7
			C540,348.2,537.3,351,533.9,351z"/>
		<line class="st5" x1="531" y1="297" x2="531" y2="288"/>
		<line class="st5" x1="531" y1="351" x2="531" y2="360"/>
		<line class="st10" x1="522" y1="342" x2="540" y2="342"/>
		<line class="st16" x1="522" y1="333" x2="540" y2="333"/>
		<line class="st11" x1="522" y1="324" x2="540" y2="324"/>
		<line class="st16" x1="522" y1="315" x2="540" y2="315"/>
		<line class="st16" x1="522" y1="306" x2="540" y2="306"/>
	</g>
	<g>
		<path class="st9" d="M506.6,440.9h-5.7c-3.4,0-6.1-2.8-6.1-6.1v-41.7c0-3.4,2.8-6.1,6.1-6.1h5.7c3.4,0,6.1,2.8,6.1,6.1v41.7
			C512.7,438.2,510,440.9,506.6,440.9z"/>
		<line class="st5" x1="503.7" y1="386.9" x2="503.7" y2="377.9"/>
		<line class="st5" x1="503.7" y1="440.9" x2="503.7" y2="449.9"/>
		<line class="st10" x1="494.7" y1="431.9" x2="512.7" y2="431.9"/>
		<line class="st10" x1="494.7" y1="422.9" x2="512.7" y2="422.9"/>
		<line class="st11" x1="494.7" y1="413.9" x2="512.7" y2="413.9"/>
		<line class="st12" x1="494.7" y1="404.9" x2="512.7" y2="404.9"/>
		<line class="st13" x1="494.7" y1="395.9" x2="512.7" y2="395.9"/>
	</g>
	<g>
		<line class="st5" x1="522" y1="377.9" x2="522" y2="440.9"/>
		<rect x="515.2" y="393.7" width="13.5" height="31.5"/>
		<line class="st5" x1="515.2" y1="395.8" x2="528.8" y2="395.8"/>
	</g>
	<g>
		<ellipse class="st23" cx="567.2" cy="306.1" rx="20" ry="20.1"/>
	</g>
	<g>
		<line class="st5" x1="575.9" y1="386.7" x2="575.9" y2="449.9"/>
		<ellipse class="st6" cx="575.9" cy="418.1" rx="5.3" ry="29.5"/>
		<line class="st7" x1="575.9" y1="388.7" x2="575.9" y2="447.5"/>
	</g>
	<g>
		<path class="st9" d="M591.2,377.8h5.7c3.4,0,6.1,2.8,6.1,6.1v41.7c0,3.4-2.8,6.1-6.1,6.1h-5.7c-3.4,0-6.1-2.8-6.1-6.1v-41.7
			C585.1,380.6,587.8,377.8,591.2,377.8z"/>
		<line class="st5" x1="594.1" y1="431.8" x2="594.1" y2="440.8"/>
		<line class="st5" x1="594.1" y1="377.8" x2="594.1" y2="368.8"/>
		<line class="st10" x1="603.1" y1="386.8" x2="585.1" y2="386.8"/>
		<line class="st16" x1="603.1" y1="395.8" x2="585.1" y2="395.8"/>
		<line class="st11" x1="603.1" y1="404.8" x2="585.1" y2="404.8"/>
		<line class="st16" x1="603.1" y1="413.8" x2="585.1" y2="413.8"/>
		<line class="st16" x1="603.1" y1="422.8" x2="585.1" y2="422.8"/>
	</g>
	<g>
		<path class="st9" d="M690.1,386.8l5.7,0c3.4,0,6.1,2.8,6.1,6.1l-0.1,41.7c0,3.4-2.8,6.1-6.1,6.1l-5.7,0c-3.4,0-6.1-2.8-6.1-6.1
			L684,393C684,389.6,686.8,386.8,690.1,386.8z"/>
		<line class="st5" x1="692.9" y1="440.9" x2="692.9" y2="449.9"/>
		<line class="st5" x1="693" y1="386.9" x2="693" y2="377.9"/>
		<line class="st10" x1="702" y1="395.9" x2="684" y2="395.8"/>
		<line class="st10" x1="702" y1="404.9" x2="684" y2="404.8"/>
		<line class="st11" x1="701.9" y1="413.9" x2="683.9" y2="413.8"/>
		<line class="st12" x1="701.9" y1="422.9" x2="683.9" y2="422.8"/>
		<line class="st13" x1="701.9" y1="431.9" x2="683.9" y2="431.8"/>
	</g>
	<g>
		<path class="st9" d="M663.2,386.6l5.7,0c3.4,0,6.1,2.8,6.1,6.1l-0.1,41.7c0,3.4-2.8,6.1-6.1,6.1l-5.7,0c-3.4,0-6.1-2.8-6.1-6.1
			l0.1-41.7C657,389.3,659.8,386.6,663.2,386.6z"/>
		<line class="st5" x1="665.9" y1="440.6" x2="665.9" y2="449.6"/>
		<line class="st5" x1="666" y1="386.6" x2="666" y2="377.6"/>
		<line class="st10" x1="675" y1="395.6" x2="657" y2="395.6"/>
		<line class="st17" x1="675" y1="404.6" x2="657" y2="404.6"/>
		<line class="st11" x1="675" y1="413.6" x2="657" y2="413.6"/>
		<line class="st18" x1="674.9" y1="422.6" x2="656.9" y2="422.6"/>
		<line class="st19" x1="674.9" y1="431.6" x2="656.9" y2="431.6"/>
	</g>
	<g>
		<path class="st8" d="M634.4,440.9h-9c-5,0-9-4-9-9v-36c0-5,4-9,9-9h9c5,0,9,4,9,9v36C643.4,436.8,639.4,440.9,634.4,440.9z"/>
	</g>
	<g>
		<line class="st24" x1="621.1" y1="315" x2="621.1" y2="324"/>
		<line class="st24" x1="621.1" y1="351" x2="621.1" y2="342"/>
		<path d="M625.4,349.1c-1.4,0.5-2.9,0.7-4.4,0.7c-8.2,0-14.8-7.5-14.8-16.6c0-9.2,6.6-16.6,14.8-16.6c1.5,0,3,0.3,4.4,0.7
			L625.4,349.1z"/>
	</g>
</g>
</svg>
